<?xml version="1.0" encoding="UTF-8" standalone="no"?>
<!DOCTYPE svg PUBLIC "-//W3C//DTD SVG 1.1//EN" "http://www.w3.org/Graphics/SVG/1.1/DTD/svg11.dtd">
<svg width="100%" height="100%" viewBox="0 0 208 300" version="1.1" xmlns="http://www.w3.org/2000/svg" xmlns:xlink="http://www.w3.org/1999/xlink" xml:space="preserve" xmlns:serif="http://www.serif.com/" style="fill-rule:evenodd;clip-rule:evenodd;stroke-linejoin:round;stroke-miterlimit:2;">
    <g id="Artboard1" transform="matrix(0.620505,0,0,0.881451,-567.472968,-448.964354)">
        <rect x="914.535" y="509.347" width="334.375" height="340.256" style="fill:none;"/>
        <g id="Laag-1" serif:id="Laag 1" transform="matrix(6.714964,0,0,4.727056,-642.405309,-113.87316)">
            <g transform="matrix(1,0,0,1,262.1022,138.1727)">
                <path d="M0,2.149C-0.179,2.682 -0.443,3.197 -0.803,3.669C-0.886,3.777 -0.974,3.881 -1.063,3.981C-1.329,4.286 -1.627,4.547 -1.948,4.773C-3.551,5.917 -5.691,6.08 -7.463,5.151C-7.535,5.11 -7.607,5.069 -7.68,5.029C-7.865,4.921 -8.049,4.799 -8.223,4.665C-10.55,2.891 -10.992,-0.428 -9.219,-2.755C-8.858,-3.227 -8.433,-3.618 -7.967,-3.931C-8.671,-1.839 -8.015,0.553 -6.164,1.967C-6.081,2.028 -5.998,2.09 -5.912,2.145C-4.943,2.807 -3.815,3.101 -2.714,3.046C-2.38,3.032 -2.056,2.983 -1.73,2.906C-1.119,2.758 -0.534,2.505 0,2.149" style="fill:rgb(0,132,126);fill-rule:nonzero;"/>
            </g>
            <g transform="matrix(1,0,0,1,258.2067,138.8712)">
                <path d="M0,-4.132L0.731,-2.853L2.172,-2.554L1.182,-1.464L1.343,0L0,-0.605L-1.343,0L-1.182,-1.464L-2.172,-2.554L-0.731,-2.853L0,-4.132Z" style="fill:rgb(0,132,126);fill-rule:nonzero;"/>
            </g>
            <g transform="matrix(1,0,0,1,263.0787,144.6411)">
                <path d="M0,29.908C-3.062,29.687 -5.592,29.036 -8.122,28.38C-11.202,27.587 -14.377,26.772 -18.396,26.772C-19.284,26.772 -20.213,26.812 -21.198,26.902C-22.381,27.01 -23.541,27.18 -24.69,27.423C-24.916,27.468 -25.148,27.519 -25.375,27.57L-25.375,19.878C-25.375,18.055 -24.277,16.374 -23.36,15.293L-23.337,15.271C-22.482,14.399 -21.837,13.793 -21.441,13.437L-21.339,13.346C-21.294,13.301 -21.249,13.261 -21.198,13.227L-17.745,10.165C-17.733,10.148 -17.717,10.137 -17.705,10.126L-17.53,9.973C-16.284,8.88 -15.062,7.878 -13.919,6.973C-12.775,6.067 -11.717,5.258 -10.8,4.562L-10.307,4.199C-9.045,3.22 -7.834,2.286 -6.696,1.335C-5.502,2.331 -4.2,3.339 -2.807,4.397L-2.621,4.539C-0.328,6.282 2.53,8.456 5.445,11.127C5.864,11.518 6.266,11.874 6.645,12.214L6.783,12.323C7.009,12.527 7.241,12.723 7.48,12.911L8.026,13.403C8.445,13.782 9.113,14.405 9.934,15.248C10.879,16.357 11.983,18.044 11.983,19.878L11.983,28.119C11.858,28.165 11.734,28.204 11.609,28.244L11.609,28.25C6.283,30.061 2.762,30.117 0,29.908M12.928,12.593L12.843,12.503C12.124,11.761 11.388,11.048 10.647,10.38L10.471,10.239C10.16,9.978 9.837,9.695 9.503,9.39L9.419,9.311C9.345,9.254 9.288,9.209 9.243,9.175C8.898,8.869 8.541,8.546 8.156,8.184C5.1,5.388 2.157,3.152 -0.17,1.38L-0.334,1.25C-1.455,0.401 -2.496,-0.403 -3.441,-1.167C-4.03,-1.642 -4.585,-2.106 -5.089,-2.559L-6.402,-3.816L-6.685,-4.087L-6.753,-4.025L-8.241,-2.604C-8.581,-2.299 -8.943,-1.993 -9.311,-1.682C-10.37,-0.804 -11.536,0.09 -12.747,1.03L-13.166,1.347C-15.39,3.028 -18.424,5.337 -21.509,8.173L-21.928,8.552C-22.115,8.722 -22.296,8.892 -22.482,9.056L-22.76,9.282C-23.184,9.667 -23.609,10.029 -24.045,10.392L-24.237,10.578C-24.865,11.15 -25.579,11.84 -26.348,12.633L-26.88,13.227L-26.88,13.295C-28.511,15.418 -29.371,17.682 -29.371,19.878L-29.371,32.953L-29.365,32.947C-29.365,32.947 -25.879,31.832 -25.448,31.714C-23.92,31.295 -22.426,31.029 -20.835,30.882C-16.109,30.457 -12.713,31.329 -9.039,32.268C-6.424,32.947 -3.713,33.655 -0.294,33.898C0.464,33.955 1.274,33.995 2.145,33.995C4.76,33.995 7.958,33.632 12.147,32.274L15.979,31.068L15.979,19.878C15.979,17.433 14.926,14.914 12.928,12.593" style="fill:rgb(0,132,126);fill-rule:nonzero;"/>
            </g>
            <g transform="matrix(1,0,0,1,279.1254,186.7185)">
                <path d="M0,-7.279L0,-5.549C-0.002,-3.996 -1.051,-2.641 -2.527,-2.158C-3.146,-1.956 -3.765,-1.767 -4.375,-1.59C-7.613,-0.651 -10.602,-0.096 -12.135,-0.028C-12.577,-0.006 -13.007,0 -13.426,0C-17.371,0 -20.416,-0.838 -23.365,-1.658C-26.518,-2.53 -29.495,-3.351 -33.599,-3.192C-35.88,-3.102 -38.767,-2.598 -41.144,-2.06C-42.729,-1.698 -44.093,-1.324 -44.903,-1.03C-44.905,-1.043 -44.908,-1.056 -44.911,-1.068C-45.394,-3.216 -43.966,-5.328 -41.81,-5.768C-38.959,-6.35 -35.255,-7.025 -33.752,-7.081C-29.037,-7.268 -25.629,-6.322 -22.324,-5.411C-19.216,-4.551 -16.284,-3.736 -12.317,-3.917C-10.754,-3.985 -7.307,-4.709 -3.894,-5.813C-2.553,-6.249 -1.211,-6.741 0,-7.279" style="fill:rgb(56,182,171);fill-rule:nonzero;"/>
            </g>
            <g transform="matrix(1,0,0,1,263.5931,192.1813)">
                <path d="M0,4.952C-1.952,5.55 -3.563,5.656 -5.161,5.761C-5.86,5.807 -7.317,5.879 -9.18,5.761C-10.753,5.662 -12.467,5.437 -13.59,5.174C-17.309,4.304 -20.231,1.694 -21.819,0.022C-20.591,-0.199 -19.369,-0.329 -18.135,-0.38C-14.031,-0.538 -11.054,0.282 -7.907,1.154C-4.952,1.975 -1.907,2.812 2.038,2.812C2.86,2.812 3.323,2.784 3.323,2.784C4.185,2.729 4.461,2.636 4.489,2.705C4.568,2.902 2.53,4.177 0,4.952M14.614,-4.817C13.708,-3.986 13.117,-3.617 12.883,-3.487C11.605,-2.926 10.323,-2.453 9.046,-2.089C7.07,-1.523 5.095,-1.195 3.148,-1.104C-0.82,-0.923 -3.758,-1.738 -6.865,-2.599C-10.165,-3.51 -13.578,-4.455 -18.287,-4.274C-20.263,-4.195 -22.233,-3.929 -24.18,-3.476C-25.453,-3.176 -26.71,-2.797 -27.961,-2.344C-27.4,-1.133 -26.727,0.011 -25.951,1.08C-25.301,1.977 -21.441,7.131 -14.841,8.869C-12.583,9.464 -10.244,9.596 -9.18,9.656C-8.353,9.702 -7.1,9.769 -5.474,9.657C-3.282,9.506 -1.411,9.099 0.062,8.671C1.973,8.2 5.418,7.095 8.493,4.455C10.097,3.079 11.197,1.631 11.497,1.228C12.486,-0.103 13.165,-1.363 13.636,-2.392C14.233,-3.58 14.614,-4.817 14.614,-4.817" style="fill:rgb(0,132,126);fill-rule:nonzero;"/>
            </g>
            <g transform="matrix(1,0,0,1,263.5931,192.1813)">
                <path d="M0,4.952C-1.952,5.55 -3.563,5.656 -5.161,5.761C-5.86,5.807 -7.317,5.879 -9.18,5.761C-10.753,5.662 -12.467,5.437 -13.59,5.174C-17.309,4.304 -20.231,1.694 -21.819,0.022C-20.591,-0.199 -19.369,-0.329 -18.135,-0.38C-14.031,-0.538 -11.054,0.282 -7.907,1.154C-4.952,1.975 -1.907,2.812 2.038,2.812C2.86,2.812 3.323,2.784 3.323,2.784C4.185,2.729 4.461,2.636 4.489,2.705C4.568,2.902 2.53,4.177 0,4.952M14.614,-4.817C13.708,-3.986 13.117,-3.617 12.883,-3.487C11.605,-2.926 10.323,-2.453 9.046,-2.089C7.07,-1.523 5.095,-1.195 3.148,-1.104C-0.82,-0.923 -3.758,-1.738 -6.865,-2.599C-10.165,-3.51 -13.578,-4.455 -18.287,-4.274C-20.263,-4.195 -22.233,-3.929 -24.18,-3.476C-25.453,-3.176 -26.71,-2.797 -27.961,-2.344C-27.4,-1.133 -26.727,0.011 -25.951,1.08C-25.301,1.977 -21.441,7.131 -14.841,8.869C-12.583,9.464 -10.244,9.596 -9.18,9.656C-8.353,9.702 -7.1,9.769 -5.474,9.657C-3.282,9.506 -1.411,9.099 0.062,8.671C1.973,8.2 5.418,7.095 8.493,4.455C10.097,3.079 11.197,1.631 11.497,1.228C12.486,-0.103 13.165,-1.363 13.636,-2.392C14.233,-3.58 14.614,-4.817 14.614,-4.817" style="fill:rgb(0,132,126);fill-rule:nonzero;"/>
            </g>
        </g>
    </g>
</svg>
